<?xml version="1.0" encoding="utf-8"?>
<!-- Generator: Adobe Illustrator 22.1.0, SVG Export Plug-In . SVG Version: 6.00 Build 0)  -->
<svg version="1.1" id="Layer_1" xmlns="http://www.w3.org/2000/svg" xmlns:xlink="http://www.w3.org/1999/xlink" x="0px" y="0px"
	 viewBox="0 0 128 128" style="enable-background:new 0 0 128 128;" xml:space="preserve">
<style type="text/css">
	.st0{fill:#2A4059;}
	.st1{fill:none;stroke:#C74B9B;stroke-width:2;stroke-miterlimit:10;}
	.st2{fill:none;stroke:#5CC8DE;stroke-width:2;stroke-miterlimit:10;}
</style>
<rect class="st0" width="128.4" height="128.4"/>
<g>
	<path class="st1" d="M35.1,89c-9.7,6.4-19.5,12.9-29.2,19.3c-0.6,0.4-1.2,0.8-1.9,1.2"/>
	<path class="st1" d="M116.6,35.2c-7,4.8-13.9,9.5-20.9,14.3"/>
	<path class="st1" d="M52.5,100.5c-2.4,7.8-4.8,15.6-6.8,23.5"/>
	<path class="st1" d="M78.6,13.6c-1.3,4.2-2.5,8.4-3.8,12.6"/>
	<circle class="st1" cx="80" cy="8.9" r="4.4"/>
	<circle class="st1" cx="120.5" cy="32.5" r="4.4"/>
</g>
<g>
	<path class="st2" d="M36,89.3c-9.7,6.4-19.5,12.9-29.2,19.3c-0.6,0.4-1.2,0.8-1.9,1.2"/>
	<path class="st2" d="M117.5,35.5c-7,4.8-13.9,9.5-20.9,14.3"/>
	<path class="st2" d="M53.4,100.8c-2.4,7.8-4.8,15.6-6.8,23.5"/>
	<path class="st2" d="M79.5,13.9c-1.3,4.2-2.5,8.4-3.8,12.6"/>
	<circle class="st2" cx="80.9" cy="9.2" r="4.4"/>
	<circle class="st2" cx="121.4" cy="32.8" r="4.4"/>
</g>
<g>
	<circle class="st1" cx="64.5" cy="64" r="37.7"/>
	<path class="st1" d="M58.5,92.8c-4.4,2-9.1,3.2-14,3.2"/>
	<path class="st1" d="M88.4,34.9c0,11.9-2.4,23.9-7.7,34.6"/>
	<path class="st1" d="M47.5,84.5c-4.2,1.5-8.6,2.3-13.1,2.3"/>
	<path class="st1" d="M80.9,30.1c0,11.7-2.9,23.4-8.9,33.5"/>
	<path class="st1" d="M40,75.2c-3.6,1-7.3,1.5-11.1,1.6"/>
	<path class="st1" d="M73.5,27.4c0,10-2.8,20-8.1,28.4"/>
	<path class="st1" d="M74.7,97.7c-3.9,2.4-8.4,3.9-13,3.9"/>
	<path class="st1" d="M97.2,45.3c0,9.8-1.5,19.6-4.9,28.7"/>
	<path class="st1" d="M31.4,45.3c0,29.1,22.2,52.6,49.5,52.6"/>
	<path class="st1" d="M37.8,37.3c0,29.8,23.6,53.9,52.8,53.9"/>
	<path class="st1" d="M46.6,30.8c0,29.5,22.2,53.4,49.7,53.4"/>
	<path class="st1" d="M56.1,27.2c0,26.5,19.8,47.9,44.3,47.9"/>
</g>
<g>
	<circle class="st2" cx="63" cy="63" r="37.7"/>
	<path class="st2" d="M57,91.8c-4.4,2-9.1,3.2-14,3.2"/>
	<path class="st2" d="M87,33.9c0,11.9-2.4,23.9-7.7,34.6"/>
	<path class="st2" d="M46,83.5c-4.2,1.5-8.6,2.3-13.1,2.3"/>
	<path class="st2" d="M79.4,29c0,11.7-2.9,23.4-8.9,33.5"/>
	<path class="st2" d="M38.6,74.1c-3.6,1-7.3,1.5-11.1,1.6"/>
	<path class="st2" d="M72,26.3c0,10-2.8,20-8.1,28.4"/>
	<path class="st2" d="M73.2,96.7c-3.9,2.4-8.4,3.9-13,3.9"/>
	<path class="st2" d="M95.7,44.3c0,9.8-1.5,19.6-4.9,28.7"/>
	<path class="st2" d="M29.9,44.3c0,29.1,22.2,52.6,49.5,52.6"/>
	<path class="st2" d="M36.4,36.2C36.4,66,60,90.1,89.1,90.1"/>
	<path class="st2" d="M45.1,29.7c0,29.5,22.2,53.4,49.7,53.4"/>
	<path class="st2" d="M54.7,26.2c0,26.5,19.8,47.9,44.3,47.9"/>
</g>
</svg>
